# xmcd
#
# Track frame offsets:
#	150
#	17727
#	37560
#	50707
#	68345
#	87245
#	102350
#	119885
#	135445
#	150092
#	165812
#	178655
#
# Disc length: 2545 seconds
#
# Revision: 1
# Processed by: cddbd v1.5.1PL2 Copyright (c) Steve Scherf et al.
# Submitted via: EasyCDDAExtractor 5.0.7
#
DISCID=8509ef0c
DTITLE=Kelsey - Something's starting to happen
DYEAR=2005
DGENRE=country
TTITLE0=Something's starting to happen
TTITLE1=She can fly
TTITLE2=Give
TTITLE3=How strong love is
TTITLE4=Live for today
TTITLE5=I wouldn't have made any difference
TTITLE6=Not that different
TTITLE7=That's when you know
TTITLE8=Sounds like love
TTITLE9=Perfect
TTITLE10=It Happens
TTITLE11=I do what i wanna do
EXTD=
EXTT0=
EXTT1=
EXTT2=
EXTT3=
EXTT4=
EXTT5=
EXTT6=
EXTT7=
EXTT8=
EXTT9=
EXTT10=
EXTT11=
PLAYORDER=
